# xmcd
# 
# Track frame offsets:
#     182
#     13895
#     27042
#     39187
#     53037
#     66875
#     79705
#     94495
#     108070
#     123012
#     135130
#     149147
#     163130
#     179575
#     192090
#     204550
#     218587
#     231252
#     245192
#     258925
# 
# Disc length: 3650
# 
# Revision: 3
# Processed by: cddbd v1.5.2PL0 Copyright (c) Steve Scherf et al.
# Submitted via: BonkEnc v1.0.8
# 
DISCID=160e4014
DTITLE=Various Artist - The Classics Sampler
DYEAR=0
DGENRE=Jazz
TTITLE0=John Kirby - Undecided
TTITLE1=Duke Ellington - Digga Digga Do
TTITLE2=Lionel Hampton - Fiddle-Dee-Dee
TTITLE3=Teddy Wilson - Don't Blame Me
TTITLE4=Eddie Condon - The Eel
TTITLE5=Cab Calloway - The Jumpin' Jive
TTITLE6=Django Reinhardt - Minor Swing
TTITLE7=Fats Waller - Viper's Drag
TTITLE8=Ethel Waters - Am I Blue
TTITLE9=Tiny Parham - Fat Man Blues
TTITLE10=Henry Allen - You Might Get Better, But You'll Never Get Well
TTITLE11=Duke Ellington - Jolly Wog
TTITLE12=Albert Ammons - Boogie Woogie Stomp
TTITLE13=Count Basie - The Jitters
TTITLE14=Stuff Smith - Old Joe's Hittin' The Jug
TTITLE15=Fletcher Henderson - I'm Coming Virginia
TTITLE16=Sidney Bechet - Blackstick
TTITLE17=Jimmie Noone - Here Comes The Hot Tamale Man
TTITLE18=Clarence Williams - Wild Cat Blues
TTITLE19=Johnny Dodds - (Dixieland Jug Blowers) Memphis Shake
EXTD=
EXTT0=
EXTT1=
EXTT2=
EXTT3=
EXTT4=
EXTT5=
EXTT6=
EXTT7=
EXTT8=
EXTT9=
EXTT10=
EXTT11=
EXTT12=
EXTT13=
EXTT14=
EXTT15=
EXTT16=
EXTT17=
EXTT18=
EXTT19=
PLAYORDER=
